# xmcd
#
# Track frame offsets:
#   150
#   14330
#   24444
#   34818
#   47670
#   61501
#   74552
#   86642
#   99331
#   107929
#
# Disc length: 1628 seconds
#
# Revision: 0
# Processed by: cddbd v1.4PL0 Copyright (c) Steve Scherf et al.
# Submitted via: uFREEDB 1.6.0
#
DISCID=7a065a0a
DTITLE=Reta Lee - Hey Baby
DYEAR=1900
DGENRE=Country
TTITLE0=Hey Baby
TTITLE1=It's Such A Pretty World Today
TTITLE2=Always Late
TTITLE3=Sweet Nothings
TTITLE4=I don't Want To Cry
TTITLE5=Before The Next Tear Drop Falls
TTITLE6=Sweet Freedom
TTITLE7=Chapel In The Moonlight
TTITLE8=I Just Want To Be Free
TTITLE9=Twilight Time
EXTD=
EXTT0=
EXTT1=
EXTT2=
EXTT3=
EXTT4=
EXTT5=
EXTT6=
EXTT7=
EXTT8=
EXTT9=
PLAYORDER=
